<svg xmlns="http://www.w3.org/2000/svg" xmlns:svgjs="http://svgjs.dev/svgjs" xmlns:xlink="http://www.w3.org/1999/xlink" id="canvas" height="100%" preserveAspectRatio="xMidYMid slice" version="1.1" viewBox="0 0 900 512"><rect width="900" height="512" fill="#000"/><g transform="matrix(0.6176180173447832,-0.7864782162597379,0.7864782162597379,0.6176180173447832,-319.5710061955285,322.6528375380972)"><rect width="517.722" height="172.86" x="0" y="-100" fill="#450099" rx="15" ry="15"/><rect width="517.722" height="188.66" x="537.722" y="0" fill="#ab66ff" rx="15" ry="15"/><rect width="517.722" height="144.074" x="0" y="92.86" fill="#ab66ff" rx="15" ry="15"/><rect width="517.722" height="247.569" x="537.722" y="208.66" fill="#450099" rx="15" ry="15"/><rect width="517.722" height="124.528" x="0" y="256.935" fill="#eae9ff" rx="15" ry="15"/><rect width="517.722" height="189.719" x="537.722" y="476.229" fill="#eae9ff" rx="15" ry="15"/><rect width="517.722" height="238.962" x="0" y="401.463" fill="#f1e6ff" rx="15" ry="15"/><rect width="517.722" height="158.796" x="537.722" y="685.948" fill="#eae9ff" rx="15" ry="15"/><rect width="517.722" height="201.435" x="0" y="660.425" fill="#7e79ff" rx="15" ry="15"/><rect width="517.722" height="167.283" x="537.722" y="864.744" fill="#00396d" rx="15" ry="15"/><rect width="517.722" height="246.745" x="0" y="881.86" fill="#f1e6ff" rx="15" ry="15"/><rect width="517.722" height="176.143" x="537.722" y="1052.027" fill="#1c16b0" rx="15" ry="15"/></g></svg>