<svg id="canvas" height="100%" preserveAspectRatio="xMidYMid slice" xmlns="http://www.w3.org/2000/svg" version="1.1" xmlns:xlink="http://www.w3.org/1999/xlink" xmlns:svgjs="http://svgjs.dev/svgjs" viewBox="0 0 900 512"><rect width="900" height="512" fill="#000000"></rect><g transform="matrix(0.6176180173447832,-0.7864782162597379,0.7864782162597379,0.6176180173447832,-319.5710061955285,322.6528375380972)"><rect width="517.7219330876374" height="172.86039266523443" fill="#450099" x="0" y="-100" rx="15" ry="15"></rect><rect width="517.7219330876374" height="188.65977771637912" fill="#ab66ff" x="537.7219330876374" y="0" rx="15" ry="15"></rect><rect width="517.7219330876374" height="144.07412125150375" fill="#ab66ff" x="0" y="92.86039266523443" rx="15" ry="15"></rect><rect width="517.7219330876374" height="247.56917951201942" fill="#450099" x="537.7219330876374" y="208.65977771637912" rx="15" ry="15"></rect><rect width="517.7219330876374" height="124.52806717975571" fill="#eae9ff" x="0" y="256.9345139167382" rx="15" ry="15"></rect><rect width="517.7219330876374" height="189.71902868404655" fill="#eae9ff" x="537.7219330876374" y="476.2289572283986" rx="15" ry="15"></rect><rect width="517.7219330876374" height="238.9622171435019" fill="#f1e6ff" x="0" y="401.46258109649386" rx="15" ry="15"></rect><rect width="517.7219330876374" height="158.79590723157094" fill="#eae9ff" x="537.7219330876374" y="685.9479859124451" rx="15" ry="15"></rect><rect width="517.7219330876374" height="201.4354640208078" fill="#7e79ff" x="0" y="660.4247982399958" rx="15" ry="15"></rect><rect width="517.7219330876374" height="167.2832155479968" fill="#00396d" x="537.7219330876374" y="864.743893144016" rx="15" ry="15"></rect><rect width="517.7219330876374" height="246.74514750942885" fill="#f1e6ff" x="0" y="881.8602622608036" rx="15" ry="15"></rect><rect width="517.7219330876374" height="176.1426015315474" fill="#1c16b0" x="537.7219330876374" y="1052.027108692013" rx="15" ry="15"></rect></g></svg>