<svg xmlns="http://www.w3.org/2000/svg" xmlns:svgjs="http://svgjs.dev/svgjs" xmlns:xlink="http://www.w3.org/1999/xlink" id="canvas" height="100%" preserveAspectRatio="xMidYMid slice" version="1.1" viewBox="0 0 900 512"><rect width="900" height="512" fill="#000"/><line x1="0" x2="47.368" y1="47.368" y2="0" stroke="#f2f6ff" stroke-linecap="square" stroke-width="6"/><line x1="47.368" x2="94.737" y1="47.368" y2="0" stroke="#e4ecff" stroke-linecap="square" stroke-width="6"/><line x1="94.737" x2="142.105" y1="47.368" y2="0" stroke="#d7e3ff" stroke-linecap="square" stroke-width="6"/><line x1="142.105" x2="189.474" y1="0" y2="47.368" stroke="#c9d9ff" stroke-linecap="square" stroke-width="6"/><line x1="189.474" x2="236.842" y1="0" y2="47.368" stroke="#bcd0ff" stroke-linecap="square" stroke-width="6"/><line x1="236.842" x2="284.211" y1="0" y2="47.368" stroke="#aec6ff" stroke-linecap="square" stroke-width="6"/><line x1="284.211" x2="331.579" y1="47.368" y2="0" stroke="#a1bdff" stroke-linecap="square" stroke-width="6"/><line x1="331.579" x2="378.947" y1="47.368" y2="0" stroke="#94b4ff" stroke-linecap="square" stroke-width="6"/><line x1="378.947" x2="426.316" y1="47.368" y2="0" stroke="#86aaff" stroke-linecap="square" stroke-width="6"/><line x1="426.316" x2="473.684" y1="47.368" y2="0" stroke="#79a1ff" stroke-linecap="square" stroke-width="6"/><line x1="473.684" x2="521.053" y1="47.368" y2="0" stroke="#6b97ff" stroke-linecap="square" stroke-width="6"/><line x1="521.053" x2="568.421" y1="0" y2="47.368" stroke="#5e8eff" stroke-linecap="square" stroke-width="6"/><line x1="568.421" x2="615.789" y1="0" y2="47.368" stroke="#5185ff" stroke-linecap="square" stroke-width="6"/><line x1="615.789" x2="663.158" y1="0" y2="47.368" stroke="#437bff" stroke-linecap="square" stroke-width="6"/><line x1="663.158" x2="710.526" y1="0" y2="47.368" stroke="#3672ff" stroke-linecap="square" stroke-width="6"/><line x1="710.526" x2="757.895" y1="0" y2="47.368" stroke="#2868ff" stroke-linecap="square" stroke-width="6"/><line x1="757.895" x2="805.263" y1="47.368" y2="0" stroke="#1b5fff" stroke-linecap="square" stroke-width="6"/><line x1="805.263" x2="852.632" y1="0" y2="47.368" stroke="#0d55ff" stroke-linecap="square" stroke-width="6"/><line x1="852.632" x2="900" y1="47.368" y2="0" stroke="#004cff" stroke-linecap="square" stroke-width="6"/><line x1="900" x2="947.368" y1="47.368" y2="0" stroke-linecap="square" stroke-width="6"/><line x1="0" x2="47.368" y1="94.737" y2="47.368" stroke="#f2f6ff" stroke-linecap="square" stroke-width="6"/><line x1="47.368" x2="94.737" y1="47.368" y2="94.737" stroke="#e4ecff" stroke-linecap="square" stroke-width="6"/><line x1="94.737" x2="142.105" y1="94.737" y2="47.368" stroke="#d7e3ff" stroke-linecap="square" stroke-width="6"/><line x1="142.105" x2="189.474" y1="94.737" y2="47.368" stroke="#c9d9ff" stroke-linecap="square" stroke-width="6"/><line x1="189.474" x2="236.842" y1="47.368" y2="94.737" stroke="#bcd0ff" stroke-linecap="square" stroke-width="6"/><line x1="236.842" x2="284.211" y1="47.368" y2="94.737" stroke="#aec6ff" stroke-linecap="square" stroke-width="6"/><line x1="284.211" x2="331.579" y1="94.737" y2="47.368" stroke="#a1bdff" stroke-linecap="square" stroke-width="6"/><line x1="331.579" x2="378.947" y1="94.737" y2="47.368" stroke="#94b4ff" stroke-linecap="square" stroke-width="6"/><line x1="378.947" x2="426.316" y1="94.737" y2="47.368" stroke="#86aaff" stroke-linecap="square" stroke-width="6"/><line x1="426.316" x2="473.684" y1="47.368" y2="94.737" stroke="#79a1ff" stroke-linecap="square" stroke-width="6"/><line x1="473.684" x2="521.053" y1="94.737" y2="47.368" stroke="#6b97ff" stroke-linecap="square" stroke-width="6"/><line x1="521.053" x2="568.421" y1="94.737" y2="47.368" stroke="#5e8eff" stroke-linecap="square" stroke-width="6"/><line x1="568.421" x2="615.789" y1="94.737" y2="47.368" stroke="#5185ff" stroke-linecap="square" stroke-width="6"/><line x1="615.789" x2="663.158" y1="94.737" y2="47.368" stroke="#437bff" stroke-linecap="square" stroke-width="6"/><line x1="663.158" x2="710.526" y1="94.737" y2="47.368" stroke="#3672ff" stroke-linecap="square" stroke-width="6"/><line x1="710.526" x2="757.895" y1="47.368" y2="94.737" stroke="#2868ff" stroke-linecap="square" stroke-width="6"/><line x1="757.895" x2="805.263" y1="47.368" y2="94.737" stroke="#1b5fff" stroke-linecap="square" stroke-width="6"/><line x1="805.263" x2="852.632" y1="47.368" y2="94.737" stroke="#0d55ff" stroke-linecap="square" stroke-width="6"/><line x1="852.632" x2="900" y1="94.737" y2="47.368" stroke="#004cff" stroke-linecap="square" stroke-width="6"/><line x1="900" x2="947.368" y1="94.737" y2="47.368" stroke-linecap="square" stroke-width="6"/><line x1="0" x2="47.368" y1="142.105" y2="94.737" stroke="#f2f6ff" stroke-linecap="square" stroke-width="6"/><line x1="47.368" x2="94.737" y1="142.105" y2="94.737" stroke="#e4ecff" stroke-linecap="square" stroke-width="6"/><line x1="94.737" x2="142.105" y1="142.105" y2="94.737" stroke="#d7e3ff" stroke-linecap="square" stroke-width="6"/><line x1="142.105" x2="189.474" y1="94.737" y2="142.105" stroke="#c9d9ff" stroke-linecap="square" stroke-width="6"/><line x1="189.474" x2="236.842" y1="142.105" y2="94.737" stroke="#bcd0ff" stroke-linecap="square" stroke-width="6"/><line x1="236.842" x2="284.211" y1="94.737" y2="142.105" stroke="#aec6ff" stroke-linecap="square" stroke-width="6"/><line x1="284.211" x2="331.579" y1="142.105" y2="94.737" stroke="#a1bdff" stroke-linecap="square" stroke-width="6"/><line x1="331.579" x2="378.947" y1="94.737" y2="142.105" stroke="#94b4ff" stroke-linecap="square" stroke-width="6"/><line x1="378.947" x2="426.316" y1="142.105" y2="94.737" stroke="#86aaff" stroke-linecap="square" stroke-width="6"/><line x1="426.316" x2="473.684" y1="142.105" y2="94.737" stroke="#79a1ff" stroke-linecap="square" stroke-width="6"/><line x1="473.684" x2="521.053" y1="142.105" y2="94.737" stroke="#6b97ff" stroke-linecap="square" stroke-width="6"/><line x1="521.053" x2="568.421" y1="94.737" y2="142.105" stroke="#5e8eff" stroke-linecap="square" stroke-width="6"/><line x1="568.421" x2="615.789" y1="94.737" y2="142.105" stroke="#5185ff" stroke-linecap="square" stroke-width="6"/><line x1="615.789" x2="663.158" y1="94.737" y2="142.105" stroke="#437bff" stroke-linecap="square" stroke-width="6"/><line x1="663.158" x2="710.526" y1="142.105" y2="94.737" stroke="#3672ff" stroke-linecap="square" stroke-width="6"/><line x1="710.526" x2="757.895" y1="142.105" y2="94.737" stroke="#2868ff" stroke-linecap="square" stroke-width="6"/><line x1="757.895" x2="805.263" y1="94.737" y2="142.105" stroke="#1b5fff" stroke-linecap="square" stroke-width="6"/><line x1="805.263" x2="852.632" y1="94.737" y2="142.105" stroke="#0d55ff" stroke-linecap="square" stroke-width="6"/><line x1="852.632" x2="900" y1="142.105" y2="94.737" stroke="#004cff" stroke-linecap="square" stroke-width="6"/><line x1="900" x2="947.368" y1="94.737" y2="142.105" stroke-linecap="square" stroke-width="6"/><line x1="0" x2="47.368" y1="142.105" y2="189.474" stroke="#f2f6ff" stroke-linecap="square" stroke-width="6"/><line x1="47.368" x2="94.737" y1="189.474" y2="142.105" stroke="#e4ecff" stroke-linecap="square" stroke-width="6"/><line x1="94.737" x2="142.105" y1="142.105" y2="189.474" stroke="#d7e3ff" stroke-linecap="square" stroke-width="6"/><line x1="142.105" x2="189.474" y1="189.474" y2="142.105" stroke="#c9d9ff" stroke-linecap="square" stroke-width="6"/><line x1="189.474" x2="236.842" y1="189.474" y2="142.105" stroke="#bcd0ff" stroke-linecap="square" stroke-width="6"/><line x1="236.842" x2="284.211" y1="189.474" y2="142.105" stroke="#aec6ff" stroke-linecap="square" stroke-width="6"/><line x1="284.211" x2="331.579" y1="189.474" y2="142.105" stroke="#a1bdff" stroke-linecap="square" stroke-width="6"/><line x1="331.579" x2="378.947" y1="189.474" y2="142.105" stroke="#94b4ff" stroke-linecap="square" stroke-width="6"/><line x1="378.947" x2="426.316" y1="142.105" y2="189.474" stroke="#86aaff" stroke-linecap="square" stroke-width="6"/><line x1="426.316" x2="473.684" y1="142.105" y2="189.474" stroke="#79a1ff" stroke-linecap="square" stroke-width="6"/><line x1="473.684" x2="521.053" y1="142.105" y2="189.474" stroke="#6b97ff" stroke-linecap="square" stroke-width="6"/><line x1="521.053" x2="568.421" y1="189.474" y2="142.105" stroke="#5e8eff" stroke-linecap="square" stroke-width="6"/><line x1="568.421" x2="615.789" y1="189.474" y2="142.105" stroke="#5185ff" stroke-linecap="square" stroke-width="6"/><line x1="615.789" x2="663.158" y1="189.474" y2="142.105" stroke="#437bff" stroke-linecap="square" stroke-width="6"/><line x1="663.158" x2="710.526" y1="142.105" y2="189.474" stroke="#3672ff" stroke-linecap="square" stroke-width="6"/><line x1="710.526" x2="757.895" y1="189.474" y2="142.105" stroke="#2868ff" stroke-linecap="square" stroke-width="6"/><line x1="757.895" x2="805.263" y1="189.474" y2="142.105" stroke="#1b5fff" stroke-linecap="square" stroke-width="6"/><line x1="805.263" x2="852.632" y1="189.474" y2="142.105" stroke="#0d55ff" stroke-linecap="square" stroke-width="6"/><line x1="852.632" x2="900" y1="189.474" y2="142.105" stroke="#004cff" stroke-linecap="square" stroke-width="6"/><line x1="900" x2="947.368" y1="142.105" y2="189.474" stroke-linecap="square" stroke-width="6"/><line x1="0" x2="47.368" y1="236.842" y2="189.474" stroke="#f2f6ff" stroke-linecap="square" stroke-width="6"/><line x1="47.368" x2="94.737" y1="236.842" y2="189.474" stroke="#e4ecff" stroke-linecap="square" stroke-width="6"/><line x1="94.737" x2="142.105" y1="236.842" y2="189.474" stroke="#d7e3ff" stroke-linecap="square" stroke-width="6"/><line x1="142.105" x2="189.474" y1="189.474" y2="236.842" stroke="#c9d9ff" stroke-linecap="square" stroke-width="6"/><line x1="189.474" x2="236.842" y1="189.474" y2="236.842" stroke="#bcd0ff" stroke-linecap="square" stroke-width="6"/><line x1="236.842" x2="284.211" y1="236.842" y2="189.474" stroke="#aec6ff" stroke-linecap="square" stroke-width="6"/><line x1="284.211" x2="331.579" y1="236.842" y2="189.474" stroke="#a1bdff" stroke-linecap="square" stroke-width="6"/><line x1="331.579" x2="378.947" y1="189.474" y2="236.842" stroke="#94b4ff" stroke-linecap="square" stroke-width="6"/><line x1="378.947" x2="426.316" y1="189.474" y2="236.842" stroke="#86aaff" stroke-linecap="square" stroke-width="6"/><line x1="426.316" x2="473.684" y1="189.474" y2="236.842" stroke="#79a1ff" stroke-linecap="square" stroke-width="6"/><line x1="473.684" x2="521.053" y1="189.474" y2="236.842" stroke="#6b97ff" stroke-linecap="square" stroke-width="6"/><line x1="521.053" x2="568.421" y1="236.842" y2="189.474" stroke="#5e8eff" stroke-linecap="square" stroke-width="6"/><line x1="568.421" x2="615.789" y1="189.474" y2="236.842" stroke="#5185ff" stroke-linecap="square" stroke-width="6"/><line x1="615.789" x2="663.158" y1="236.842" y2="189.474" stroke="#437bff" stroke-linecap="square" stroke-width="6"/><line x1="663.158" x2="710.526" y1="236.842" y2="189.474" stroke="#3672ff" stroke-linecap="square" stroke-width="6"/><line x1="710.526" x2="757.895" y1="189.474" y2="236.842" stroke="#2868ff" stroke-linecap="square" stroke-width="6"/><line x1="757.895" x2="805.263" y1="236.842" y2="189.474" stroke="#1b5fff" stroke-linecap="square" stroke-width="6"/><line x1="805.263" x2="852.632" y1="189.474" y2="236.842" stroke="#0d55ff" stroke-linecap="square" stroke-width="6"/><line x1="852.632" x2="900" y1="189.474" y2="236.842" stroke="#004cff" stroke-linecap="square" stroke-width="6"/><line x1="900" x2="947.368" y1="236.842" y2="189.474" stroke-linecap="square" stroke-width="6"/><line x1="0" x2="47.368" y1="236.842" y2="284.211" stroke="#f2f6ff" stroke-linecap="square" stroke-width="6"/><line x1="47.368" x2="94.737" y1="284.211" y2="236.842" stroke="#e4ecff" stroke-linecap="square" stroke-width="6"/><line x1="94.737" x2="142.105" y1="284.211" y2="236.842" stroke="#d7e3ff" stroke-linecap="square" stroke-width="6"/><line x1="142.105" x2="189.474" y1="236.842" y2="284.211" stroke="#c9d9ff" stroke-linecap="square" stroke-width="6"/><line x1="189.474" x2="236.842" y1="236.842" y2="284.211" stroke="#bcd0ff" stroke-linecap="square" stroke-width="6"/><line x1="236.842" x2="284.211" y1="236.842" y2="284.211" stroke="#aec6ff" stroke-linecap="square" stroke-width="6"/><line x1="284.211" x2="331.579" y1="284.211" y2="236.842" stroke="#a1bdff" stroke-linecap="square" stroke-width="6"/><line x1="331.579" x2="378.947" y1="236.842" y2="284.211" stroke="#94b4ff" stroke-linecap="square" stroke-width="6"/><line x1="378.947" x2="426.316" y1="236.842" y2="284.211" stroke="#86aaff" stroke-linecap="square" stroke-width="6"/><line x1="426.316" x2="473.684" y1="284.211" y2="236.842" stroke="#79a1ff" stroke-linecap="square" stroke-width="6"/><line x1="473.684" x2="521.053" y1="284.211" y2="236.842" stroke="#6b97ff" stroke-linecap="square" stroke-width="6"/><line x1="521.053" x2="568.421" y1="284.211" y2="236.842" stroke="#5e8eff" stroke-linecap="square" stroke-width="6"/><line x1="568.421" x2="615.789" y1="236.842" y2="284.211" stroke="#5185ff" stroke-linecap="square" stroke-width="6"/><line x1="615.789" x2="663.158" y1="236.842" y2="284.211" stroke="#437bff" stroke-linecap="square" stroke-width="6"/><line x1="663.158" x2="710.526" y1="284.211" y2="236.842" stroke="#3672ff" stroke-linecap="square" stroke-width="6"/><line x1="710.526" x2="757.895" y1="284.211" y2="236.842" stroke="#2868ff" stroke-linecap="square" stroke-width="6"/><line x1="757.895" x2="805.263" y1="284.211" y2="236.842" stroke="#1b5fff" stroke-linecap="square" stroke-width="6"/><line x1="805.263" x2="852.632" y1="284.211" y2="236.842" stroke="#0d55ff" stroke-linecap="square" stroke-width="6"/><line x1="852.632" x2="900" y1="236.842" y2="284.211" stroke="#004cff" stroke-linecap="square" stroke-width="6"/><line x1="900" x2="947.368" y1="284.211" y2="236.842" stroke-linecap="square" stroke-width="6"/><line x1="0" x2="47.368" y1="284.211" y2="331.579" stroke="#f2f6ff" stroke-linecap="square" stroke-width="6"/><line x1="47.368" x2="94.737" y1="284.211" y2="331.579" stroke="#e4ecff" stroke-linecap="square" stroke-width="6"/><line x1="94.737" x2="142.105" y1="284.211" y2="331.579" stroke="#d7e3ff" stroke-linecap="square" stroke-width="6"/><line x1="142.105" x2="189.474" y1="284.211" y2="331.579" stroke="#c9d9ff" stroke-linecap="square" stroke-width="6"/><line x1="189.474" x2="236.842" y1="284.211" y2="331.579" stroke="#bcd0ff" stroke-linecap="square" stroke-width="6"/><line x1="236.842" x2="284.211" y1="331.579" y2="284.211" stroke="#aec6ff" stroke-linecap="square" stroke-width="6"/><line x1="284.211" x2="331.579" y1="331.579" y2="284.211" stroke="#a1bdff" stroke-linecap="square" stroke-width="6"/><line x1="331.579" x2="378.947" y1="284.211" y2="331.579" stroke="#94b4ff" stroke-linecap="square" stroke-width="6"/><line x1="378.947" x2="426.316" y1="331.579" y2="284.211" stroke="#86aaff" stroke-linecap="square" stroke-width="6"/><line x1="426.316" x2="473.684" y1="284.211" y2="331.579" stroke="#79a1ff" stroke-linecap="square" stroke-width="6"/><line x1="473.684" x2="521.053" y1="284.211" y2="331.579" stroke="#6b97ff" stroke-linecap="square" stroke-width="6"/><line x1="521.053" x2="568.421" y1="331.579" y2="284.211" stroke="#5e8eff" stroke-linecap="square" stroke-width="6"/><line x1="568.421" x2="615.789" y1="284.211" y2="331.579" stroke="#5185ff" stroke-linecap="square" stroke-width="6"/><line x1="615.789" x2="663.158" y1="331.579" y2="284.211" stroke="#437bff" stroke-linecap="square" stroke-width="6"/><line x1="663.158" x2="710.526" y1="331.579" y2="284.211" stroke="#3672ff" stroke-linecap="square" stroke-width="6"/><line x1="710.526" x2="757.895" y1="331.579" y2="284.211" stroke="#2868ff" stroke-linecap="square" stroke-width="6"/><line x1="757.895" x2="805.263" y1="331.579" y2="284.211" stroke="#1b5fff" stroke-linecap="square" stroke-width="6"/><line x1="805.263" x2="852.632" y1="284.211" y2="331.579" stroke="#0d55ff" stroke-linecap="square" stroke-width="6"/><line x1="852.632" x2="900" y1="284.211" y2="331.579" stroke="#004cff" stroke-linecap="square" stroke-width="6"/><line x1="900" x2="947.368" y1="284.211" y2="331.579" stroke-linecap="square" stroke-width="6"/><line x1="0" x2="47.368" y1="378.947" y2="331.579" stroke="#f2f6ff" stroke-linecap="square" stroke-width="6"/><line x1="47.368" x2="94.737" y1="378.947" y2="331.579" stroke="#e4ecff" stroke-linecap="square" stroke-width="6"/><line x1="94.737" x2="142.105" y1="331.579" y2="378.947" stroke="#d7e3ff" stroke-linecap="square" stroke-width="6"/><line x1="142.105" x2="189.474" y1="331.579" y2="378.947" stroke="#c9d9ff" stroke-linecap="square" stroke-width="6"/><line x1="189.474" x2="236.842" y1="331.579" y2="378.947" stroke="#bcd0ff" stroke-linecap="square" stroke-width="6"/><line x1="236.842" x2="284.211" y1="378.947" y2="331.579" stroke="#aec6ff" stroke-linecap="square" stroke-width="6"/><line x1="284.211" x2="331.579" y1="331.579" y2="378.947" stroke="#a1bdff" stroke-linecap="square" stroke-width="6"/><line x1="331.579" x2="378.947" y1="378.947" y2="331.579" stroke="#94b4ff" stroke-linecap="square" stroke-width="6"/><line x1="378.947" x2="426.316" y1="378.947" y2="331.579" stroke="#86aaff" stroke-linecap="square" stroke-width="6"/><line x1="426.316" x2="473.684" y1="331.579" y2="378.947" stroke="#79a1ff" stroke-linecap="square" stroke-width="6"/><line x1="473.684" x2="521.053" y1="331.579" y2="378.947" stroke="#6b97ff" stroke-linecap="square" stroke-width="6"/><line x1="521.053" x2="568.421" y1="378.947" y2="331.579" stroke="#5e8eff" stroke-linecap="square" stroke-width="6"/><line x1="568.421" x2="615.789" y1="378.947" y2="331.579" stroke="#5185ff" stroke-linecap="square" stroke-width="6"/><line x1="615.789" x2="663.158" y1="331.579" y2="378.947" stroke="#437bff" stroke-linecap="square" stroke-width="6"/><line x1="663.158" x2="710.526" y1="378.947" y2="331.579" stroke="#3672ff" stroke-linecap="square" stroke-width="6"/><line x1="710.526" x2="757.895" y1="378.947" y2="331.579" stroke="#2868ff" stroke-linecap="square" stroke-width="6"/><line x1="757.895" x2="805.263" y1="331.579" y2="378.947" stroke="#1b5fff" stroke-linecap="square" stroke-width="6"/><line x1="805.263" x2="852.632" y1="378.947" y2="331.579" stroke="#0d55ff" stroke-linecap="square" stroke-width="6"/><line x1="852.632" x2="900" y1="378.947" y2="331.579" stroke="#004cff" stroke-linecap="square" stroke-width="6"/><line x1="900" x2="947.368" y1="378.947" y2="331.579" stroke-linecap="square" stroke-width="6"/><line x1="0" x2="47.368" y1="378.947" y2="426.316" stroke="#f2f6ff" stroke-linecap="square" stroke-width="6"/><line x1="47.368" x2="94.737" y1="426.316" y2="378.947" stroke="#e4ecff" stroke-linecap="square" stroke-width="6"/><line x1="94.737" x2="142.105" y1="378.947" y2="426.316" stroke="#d7e3ff" stroke-linecap="square" stroke-width="6"/><line x1="142.105" x2="189.474" y1="426.316" y2="378.947" stroke="#c9d9ff" stroke-linecap="square" stroke-width="6"/><line x1="189.474" x2="236.842" y1="378.947" y2="426.316" stroke="#bcd0ff" stroke-linecap="square" stroke-width="6"/><line x1="236.842" x2="284.211" y1="378.947" y2="426.316" stroke="#aec6ff" stroke-linecap="square" stroke-width="6"/><line x1="284.211" x2="331.579" y1="426.316" y2="378.947" stroke="#a1bdff" stroke-linecap="square" stroke-width="6"/><line x1="331.579" x2="378.947" y1="426.316" y2="378.947" stroke="#94b4ff" stroke-linecap="square" stroke-width="6"/><line x1="378.947" x2="426.316" y1="426.316" y2="378.947" stroke="#86aaff" stroke-linecap="square" stroke-width="6"/><line x1="426.316" x2="473.684" y1="378.947" y2="426.316" stroke="#79a1ff" stroke-linecap="square" stroke-width="6"/><line x1="473.684" x2="521.053" y1="378.947" y2="426.316" stroke="#6b97ff" stroke-linecap="square" stroke-width="6"/><line x1="521.053" x2="568.421" y1="426.316" y2="378.947" stroke="#5e8eff" stroke-linecap="square" stroke-width="6"/><line x1="568.421" x2="615.789" y1="426.316" y2="378.947" stroke="#5185ff" stroke-linecap="square" stroke-width="6"/><line x1="615.789" x2="663.158" y1="378.947" y2="426.316" stroke="#437bff" stroke-linecap="square" stroke-width="6"/><line x1="663.158" x2="710.526" y1="426.316" y2="378.947" stroke="#3672ff" stroke-linecap="square" stroke-width="6"/><line x1="710.526" x2="757.895" y1="426.316" y2="378.947" stroke="#2868ff" stroke-linecap="square" stroke-width="6"/><line x1="757.895" x2="805.263" y1="378.947" y2="426.316" stroke="#1b5fff" stroke-linecap="square" stroke-width="6"/><line x1="805.263" x2="852.632" y1="378.947" y2="426.316" stroke="#0d55ff" stroke-linecap="square" stroke-width="6"/><line x1="852.632" x2="900" y1="426.316" y2="378.947" stroke="#004cff" stroke-linecap="square" stroke-width="6"/><line x1="900" x2="947.368" y1="378.947" y2="426.316" stroke-linecap="square" stroke-width="6"/><line x1="0" x2="47.368" y1="473.684" y2="426.316" stroke="#f2f6ff" stroke-linecap="square" stroke-width="6"/><line x1="47.368" x2="94.737" y1="426.316" y2="473.684" stroke="#e4ecff" stroke-linecap="square" stroke-width="6"/><line x1="94.737" x2="142.105" y1="426.316" y2="473.684" stroke="#d7e3ff" stroke-linecap="square" stroke-width="6"/><line x1="142.105" x2="189.474" y1="426.316" y2="473.684" stroke="#c9d9ff" stroke-linecap="square" stroke-width="6"/><line x1="189.474" x2="236.842" y1="426.316" y2="473.684" stroke="#bcd0ff" stroke-linecap="square" stroke-width="6"/><line x1="236.842" x2="284.211" y1="473.684" y2="426.316" stroke="#aec6ff" stroke-linecap="square" stroke-width="6"/><line x1="284.211" x2="331.579" y1="426.316" y2="473.684" stroke="#a1bdff" stroke-linecap="square" stroke-width="6"/><line x1="331.579" x2="378.947" y1="473.684" y2="426.316" stroke="#94b4ff" stroke-linecap="square" stroke-width="6"/><line x1="378.947" x2="426.316" y1="473.684" y2="426.316" stroke="#86aaff" stroke-linecap="square" stroke-width="6"/><line x1="426.316" x2="473.684" y1="426.316" y2="473.684" stroke="#79a1ff" stroke-linecap="square" stroke-width="6"/><line x1="473.684" x2="521.053" y1="473.684" y2="426.316" stroke="#6b97ff" stroke-linecap="square" stroke-width="6"/><line x1="521.053" x2="568.421" y1="426.316" y2="473.684" stroke="#5e8eff" stroke-linecap="square" stroke-width="6"/><line x1="568.421" x2="615.789" y1="473.684" y2="426.316" stroke="#5185ff" stroke-linecap="square" stroke-width="6"/><line x1="615.789" x2="663.158" y1="426.316" y2="473.684" stroke="#437bff" stroke-linecap="square" stroke-width="6"/><line x1="663.158" x2="710.526" y1="473.684" y2="426.316" stroke="#3672ff" stroke-linecap="square" stroke-width="6"/><line x1="710.526" x2="757.895" y1="426.316" y2="473.684" stroke="#2868ff" stroke-linecap="square" stroke-width="6"/><line x1="757.895" x2="805.263" y1="473.684" y2="426.316" stroke="#1b5fff" stroke-linecap="square" stroke-width="6"/><line x1="805.263" x2="852.632" y1="473.684" y2="426.316" stroke="#0d55ff" stroke-linecap="square" stroke-width="6"/><line x1="852.632" x2="900" y1="426.316" y2="473.684" stroke="#004cff" stroke-linecap="square" stroke-width="6"/><line x1="900" x2="947.368" y1="473.684" y2="426.316" stroke-linecap="square" stroke-width="6"/><line x1="0" x2="47.368" y1="473.684" y2="521.053" stroke="#f2f6ff" stroke-linecap="square" stroke-width="6"/><line x1="47.368" x2="94.737" y1="521.053" y2="473.684" stroke="#e4ecff" stroke-linecap="square" stroke-width="6"/><line x1="94.737" x2="142.105" y1="521.053" y2="473.684" stroke="#d7e3ff" stroke-linecap="square" stroke-width="6"/><line x1="142.105" x2="189.474" y1="521.053" y2="473.684" stroke="#c9d9ff" stroke-linecap="square" stroke-width="6"/><line x1="189.474" x2="236.842" y1="473.684" y2="521.053" stroke="#bcd0ff" stroke-linecap="square" stroke-width="6"/><line x1="236.842" x2="284.211" y1="473.684" y2="521.053" stroke="#aec6ff" stroke-linecap="square" stroke-width="6"/><line x1="284.211" x2="331.579" y1="521.053" y2="473.684" stroke="#a1bdff" stroke-linecap="square" stroke-width="6"/><line x1="331.579" x2="378.947" y1="473.684" y2="521.053" stroke="#94b4ff" stroke-linecap="square" stroke-width="6"/><line x1="378.947" x2="426.316" y1="473.684" y2="521.053" stroke="#86aaff" stroke-linecap="square" stroke-width="6"/><line x1="426.316" x2="473.684" y1="473.684" y2="521.053" stroke="#79a1ff" stroke-linecap="square" stroke-width="6"/><line x1="473.684" x2="521.053" y1="473.684" y2="521.053" stroke="#6b97ff" stroke-linecap="square" stroke-width="6"/><line x1="521.053" x2="568.421" y1="473.684" y2="521.053" stroke="#5e8eff" stroke-linecap="square" stroke-width="6"/><line x1="568.421" x2="615.789" y1="521.053" y2="473.684" stroke="#5185ff" stroke-linecap="square" stroke-width="6"/><line x1="615.789" x2="663.158" y1="521.053" y2="473.684" stroke="#437bff" stroke-linecap="square" stroke-width="6"/><line x1="663.158" x2="710.526" y1="521.053" y2="473.684" stroke="#3672ff" stroke-linecap="square" stroke-width="6"/><line x1="710.526" x2="757.895" y1="521.053" y2="473.684" stroke="#2868ff" stroke-linecap="square" stroke-width="6"/><line x1="757.895" x2="805.263" y1="473.684" y2="521.053" stroke="#1b5fff" stroke-linecap="square" stroke-width="6"/><line x1="805.263" x2="852.632" y1="473.684" y2="521.053" stroke="#0d55ff" stroke-linecap="square" stroke-width="6"/><line x1="852.632" x2="900" y1="521.053" y2="473.684" stroke="#004cff" stroke-linecap="square" stroke-width="6"/><line x1="900" x2="947.368" y1="521.053" y2="473.684" stroke-linecap="square" stroke-width="6"/></svg>